<?xml version="1.0" encoding="UTF-8"?><svg id="Capa_2" xmlns="http://www.w3.org/2000/svg" viewBox="0 0 184.5 184.5"><defs><style>.cls-1{fill:#fff;}.cls-2{fill:#074780;stroke:#c6bbb5;stroke-miterlimit:10;stroke-width:4px;}.cls-3{fill:#c6bbb5;}</style></defs><g id="Capa_1-2"><g><circle class="cls-2" cx="92.25" cy="92.25" r="90.25"/><g><path class="cls-1" d="M40.92,63.05h29.05v87.31h-29.05V63.05Z"/><path class="cls-1" d="M100.36,142.42c-5.11-5.29-7.67-12.81-7.67-22.55v-34.82h-24.18v-22.01h24.18v-17.86l29.05-7.76v25.62h20.75l-1.26,22.01h-19.48v32.83c0,4.09,.96,6.95,2.89,8.57,1.92,1.62,5.05,2.43,9.38,2.43,3.49,0,7.04-.6,10.64-1.8v19.66c-5.66,2.41-12.69,3.61-21.11,3.61-10.34,0-18.07-2.64-23.18-7.94Z"/><circle class="cls-3" cx="58.49" cy="42.19" r="15.25"/></g></g></g></svg>